<svg width="1920" height="1080" viewBox="0 0 1920 1080" fill="none" xmlns="http://www.w3.org/2000/svg">
<g clip-path="url(#clip0_2002_56)">
<g clip-path="url(#paint0_diamond_2002_56_clip_path)" data-figma-skip-parse="true"><g transform="matrix(1.06667 1.52439 -1.52439 1.06667 259.967 -302.344)"><rect x="0" y="0" width="1121.04" height="638.621" fill="url(#paint0_diamond_2002_56)" opacity="1" shape-rendering="crispEdges"/><rect x="0" y="0" width="1121.04" height="638.621" transform="scale(1 -1)" fill="url(#paint0_diamond_2002_56)" opacity="1" shape-rendering="crispEdges"/><rect x="0" y="0" width="1121.04" height="638.621" transform="scale(-1 1)" fill="url(#paint0_diamond_2002_56)" opacity="1" shape-rendering="crispEdges"/><rect x="0" y="0" width="1121.04" height="638.621" transform="scale(-1)" fill="url(#paint0_diamond_2002_56)" opacity="1" shape-rendering="crispEdges"/></g></g><rect width="1920" height="1080" data-figma-gradient-fill="{&#34;type&#34;:&#34;GRADIENT_DIAMOND&#34;,&#34;stops&#34;:[{&#34;color&#34;:{&#34;r&#34;:0.90196079015731812,&#34;g&#34;:0.91764706373214722,&#34;b&#34;:0.95294117927551270,&#34;a&#34;:1.0},&#34;position&#34;:0.33500000834465027},{&#34;color&#34;:{&#34;r&#34;:0.82352942228317261,&#34;g&#34;:0.85490196943283081,&#34;b&#34;:0.92156863212585449,&#34;a&#34;:1.0},&#34;position&#34;:1.0}],&#34;stopsVar&#34;:[{&#34;color&#34;:{&#34;r&#34;:0.90196079015731812,&#34;g&#34;:0.91764706373214722,&#34;b&#34;:0.95294117927551270,&#34;a&#34;:1.0},&#34;position&#34;:0.33500000834465027},{&#34;color&#34;:{&#34;r&#34;:0.82352942228317261,&#34;g&#34;:0.85490196943283081,&#34;b&#34;:0.92156863212585449,&#34;a&#34;:1.0},&#34;position&#34;:1.0}],&#34;transform&#34;:{&#34;m00&#34;:2133.3498535156250,&#34;m01&#34;:-3048.7854003906250,&#34;m02&#34;:717.68475341796875,&#34;m10&#34;:3048.785644531250,&#34;m11&#34;:2133.3498535156250,&#34;m12&#34;:-2893.4121093750},&#34;opacity&#34;:1.0,&#34;blendMode&#34;:&#34;NORMAL&#34;,&#34;visible&#34;:true}"/>
<g clip-path="url(#paint1_diamond_2002_56_clip_path)" data-figma-skip-parse="true"><g transform="matrix(-2.09896 0.787109 -0.787109 -2.09896 2288.58 269.976)"><rect x="0" y="0" width="1083.37" height="471.808" fill="url(#paint1_diamond_2002_56)" opacity="1" shape-rendering="crispEdges"/><rect x="0" y="0" width="1083.37" height="471.808" transform="scale(1 -1)" fill="url(#paint1_diamond_2002_56)" opacity="1" shape-rendering="crispEdges"/><rect x="0" y="0" width="1083.37" height="471.808" transform="scale(-1 1)" fill="url(#paint1_diamond_2002_56)" opacity="1" shape-rendering="crispEdges"/><rect x="0" y="0" width="1083.37" height="471.808" transform="scale(-1)" fill="url(#paint1_diamond_2002_56)" opacity="1" shape-rendering="crispEdges"/></g></g><rect width="1920" height="1080" data-figma-gradient-fill="{&#34;type&#34;:&#34;GRADIENT_DIAMOND&#34;,&#34;stops&#34;:[{&#34;color&#34;:{&#34;r&#34;:0.90196079015731812,&#34;g&#34;:0.91764706373214722,&#34;b&#34;:0.95294117927551270,&#34;a&#34;:1.0},&#34;position&#34;:0.16192033886909485},{&#34;color&#34;:{&#34;r&#34;:0.82352942228317261,&#34;g&#34;:0.85490196943283081,&#34;b&#34;:0.92156863212585449,&#34;a&#34;:0.0},&#34;position&#34;:1.0}],&#34;stopsVar&#34;:[{&#34;color&#34;:{&#34;r&#34;:0.90196079015731812,&#34;g&#34;:0.91764706373214722,&#34;b&#34;:0.95294117927551270,&#34;a&#34;:1.0},&#34;position&#34;:0.16192033886909485},{&#34;color&#34;:{&#34;r&#34;:0.82352942228317261,&#34;g&#34;:0.85490196943283081,&#34;b&#34;:0.92156863212585449,&#34;a&#34;:0.0},&#34;position&#34;:1.0}],&#34;transform&#34;:{&#34;m00&#34;:-4197.913574218750,&#34;m01&#34;:-1574.2180175781250,&#34;m02&#34;:5174.641113281250,&#34;m10&#34;:1574.21777343750,&#34;m11&#34;:-4197.91308593750,&#34;m12&#34;:1581.823730468750},&#34;opacity&#34;:1.0,&#34;blendMode&#34;:&#34;NORMAL&#34;,&#34;visible&#34;:true}"/>
<path d="M305.73 3.78C314.76 2.49 323.86 1.23 332.95 0H0V91.43C38.46 70.77 78.94 54.02 120.98 41.45C184.4 22.49 249.96 11.77 305.73 3.78Z" fill="url(#paint2_linear_2002_56)" style="mix-blend-mode:overlay"/>
<path d="M191.54 189.6C254.95 170.64 320.52 159.92 376.29 151.93C399.21 148.65 422.54 145.61 445.1 142.67C492.91 136.44 542.36 130.01 589.78 120.95C641.9 111 686.29 98.82 725.5 83.71C772.85 65.47 820.23 38.09 870.34 0H713.33C705.62 3.46 697.92 6.67 690.22 9.63C651.01 24.73 606.62 36.92 554.5 46.87C507.08 55.93 457.64 62.36 409.82 68.59C387.26 71.53 363.93 74.56 341 77.85C285.23 85.84 219.67 96.57 156.25 115.52C101.14 132 48.7 155.64 0 185.9V283.47C4.27 280.45 8.57 277.46 12.9 274.51C67.77 237.2 127.87 208.63 191.54 189.6Z" fill="url(#paint3_linear_2002_56)" style="mix-blend-mode:overlay"/>
<path d="M262.14 337.83C325.55 318.87 391.12 308.15 446.89 300.16C469.82 296.88 493.14 293.84 515.71 290.9C563.52 284.67 612.96 278.24 660.39 269.18C712.51 259.23 756.9 247.05 796.11 231.94C843.58 213.65 891.09 186.17 941.36 147.93C987.72 112.66 1032.27 71.4 1073.93 32.17C1081.38 25.16 1088.98 17.96 1096.33 10.99C1100.19 7.33 1104.06 3.67 1107.94 0H993.46C965.27 25.66 936.04 50.99 906.05 73.81C855.79 112.05 808.28 139.54 760.8 157.82C721.59 172.92 677.2 185.11 625.08 195.06C577.66 204.12 528.22 210.55 480.4 216.78C457.84 219.72 434.51 222.75 411.58 226.04C355.81 234.03 290.25 244.76 226.83 263.71C163.16 282.74 103.06 311.31 48.19 348.62C31.67 359.85 15.64 371.65 -0.0100098 383.85V486.64C26.64 464.15 54.32 442.57 83.49 422.74C138.36 385.43 198.46 356.86 262.13 337.83H262.14Z" fill="url(#paint4_linear_2002_56)" style="mix-blend-mode:overlay"/>
<path d="M332.74 486.07C396.15 467.11 461.72 456.39 517.49 448.4C540.42 445.11 563.75 442.08 586.31 439.14C634.12 432.91 683.56 426.48 730.99 417.42C783.11 407.47 827.5 395.29 866.71 380.18C914.18 361.89 961.69 334.41 1011.96 296.17C1058.32 260.9 1102.87 219.64 1144.53 180.41C1151.98 173.4 1159.58 166.2 1166.93 159.23C1225.71 103.57 1285.92 46.5798 1354.31 0.00976562H1224.12C1192.31 27.6698 1161.79 56.5698 1131.64 85.1198C1124.29 92.0798 1116.68 99.2798 1109.24 106.3C1067.58 145.54 1023.03 186.79 976.67 222.06C926.41 260.3 878.9 287.79 831.42 306.07C792.21 321.17 747.82 333.36 695.7 343.31C648.28 352.37 598.84 358.8 551.02 365.03C528.46 367.97 505.13 371.01 482.2 374.29C426.43 382.28 360.87 393.01 297.45 411.96C233.78 430.99 173.68 459.56 118.81 496.87C76.55 525.6 37.43 558 0.0100098 591.52V697.93C48.1 653.14 98.39 608.88 154.11 570.99C208.98 533.68 269.08 505.11 332.75 486.08L332.74 486.07Z" fill="url(#paint5_linear_2002_56)" style="mix-blend-mode:overlay"/>
<path d="M1480.74 21.69C1372.07 72.44 1285.72 154.21 1202.2 233.29C1194.85 240.25 1187.24 247.45 1179.8 254.47C1138.14 293.71 1093.59 334.96 1047.23 370.23C996.97 408.47 949.46 435.96 901.98 454.24C862.77 469.34 818.38 481.53 766.26 491.48C718.84 500.54 669.4 506.97 621.58 513.2C599.02 516.14 575.69 519.17 552.76 522.46C496.99 530.45 431.43 541.18 368.01 560.13C304.34 579.16 244.24 607.73 189.37 645.04C119.89 692.3 58.87 749.45 0 805.19V912.61C9.66 903.53 19.24 894.46 28.74 885.47C89.63 827.78 152.6 768.13 224.66 719.13C279.53 681.82 339.64 653.25 403.3 634.22C466.71 615.26 532.28 604.54 588.05 596.55C610.98 593.26 634.31 590.23 656.87 587.29C704.68 581.06 754.12 574.63 801.55 565.57C853.67 555.62 898.06 543.44 937.27 528.33C984.74 510.04 1032.25 482.56 1082.52 444.32C1128.87 409.05 1173.43 367.79 1215.09 328.56C1222.54 321.55 1230.14 314.35 1237.49 307.39C1321 228.31 1407.36 146.54 1516.03 95.79C1623.2 45.74 1739.52 30.6 1852.02 15.96C1869.23 13.72 1887.03 11.4 1904.33 9.01C1909.48 8.3 1914.73 7.56 1920.02 6.81V0H1533.47C1515.7 6.42 1498.11 13.59 1480.76 21.69H1480.74Z" fill="url(#paint6_linear_2002_56)" style="mix-blend-mode:overlay"/>
<path d="M99.3 1033.62C160.19 975.93 223.16 916.28 295.22 867.28C350.09 829.97 410.19 801.4 473.86 782.37C537.28 763.41 602.84 752.69 658.61 744.7C681.53 741.41 704.86 738.38 727.43 735.44C775.24 729.21 824.68 722.78 872.11 713.72C924.23 703.77 968.62 691.59 1007.83 676.48C1055.3 658.19 1102.81 630.71 1153.08 592.47C1199.43 557.2 1243.99 515.94 1285.65 476.71C1293.1 469.7 1300.7 462.5 1308.05 455.53C1391.56 376.45 1477.92 294.68 1586.59 243.93C1692.94 194.26 1808.31 178.97 1920.01 164.43V85.7197C1909.05 87.1797 1898.06 88.6197 1887.29 90.0197C1774.8 104.66 1658.47 119.8 1551.3 169.85C1442.63 220.6 1356.28 302.37 1272.77 381.45C1265.42 388.41 1257.81 395.61 1250.37 402.63C1208.71 441.87 1164.16 483.12 1117.8 518.39C1067.54 556.63 1020.03 584.12 972.55 602.4C933.34 617.51 888.95 629.69 836.83 639.64C789.41 648.7 739.96 655.13 692.15 661.36C669.59 664.3 646.26 667.34 623.34 670.62C567.57 678.61 502.01 689.34 438.59 708.29C374.92 727.32 314.82 755.89 259.95 793.2C187.89 842.2 124.92 901.85 64.03 959.54C43.09 979.38 21.71 999.63 0.0100098 1019.37V1080H49.94C66.62 1064.58 83.09 1048.98 99.3 1033.62Z" fill="url(#paint7_linear_2002_56)" style="mix-blend-mode:overlay"/>
<path d="M544.42 930.52C607.83 911.56 673.4 900.84 729.17 892.85C752.1 889.56 775.43 886.53 797.99 883.59C845.8 877.36 895.24 870.93 942.67 861.87C994.79 851.92 1039.18 839.74 1078.39 824.63C1125.86 806.34 1173.37 778.86 1223.64 740.62C1269.99 705.35 1314.55 664.09 1356.21 624.86C1363.66 617.85 1371.26 610.65 1378.61 603.68C1462.12 524.6 1548.48 442.83 1657.15 392.08C1741.23 352.82 1830.94 335.04 1920.01 322.13V243.15C1819.47 256.64 1717.06 273.55 1621.87 318C1513.2 368.75 1426.84 450.52 1343.33 529.6C1335.98 536.56 1328.37 543.76 1320.93 550.77C1279.27 590.01 1234.72 631.26 1188.36 666.53C1138.1 704.77 1090.59 732.26 1043.11 750.54C1003.9 765.64 959.51 777.83 907.39 787.78C859.97 796.84 810.53 803.27 762.71 809.5C740.15 812.44 716.82 815.47 693.89 818.76C638.12 826.75 572.56 837.48 509.14 856.43C445.47 875.46 385.37 904.03 330.5 941.34C269.93 982.53 215.78 1031.24 163.9 1079.98H281.5C308.4 1057.25 336.33 1035.44 365.79 1015.41C420.66 978.1 480.76 949.53 544.43 930.5L544.42 930.52Z" fill="url(#paint8_linear_2002_56)" style="mix-blend-mode:overlay"/>
<path d="M1692.42 466.15C1583.75 516.9 1497.4 598.67 1413.88 677.75C1406.53 684.71 1398.92 691.91 1391.48 698.93C1349.82 738.16 1305.27 779.42 1258.91 814.69C1208.65 852.93 1161.14 880.42 1113.66 898.7C1074.45 913.8 1030.06 925.98 977.94 935.94C930.52 945 881.08 951.43 833.26 957.66C810.7 960.6 787.37 963.63 764.44 966.92C708.67 974.91 643.1 985.64 579.69 1004.59C521.56 1021.97 466.41 1047.32 415.49 1079.99H610.81C612.2 1079.56 613.59 1079.12 614.99 1078.7C678.4 1059.74 743.97 1049.02 799.74 1041.03C822.66 1037.75 845.99 1034.71 868.56 1031.77C916.37 1025.54 965.82 1019.11 1013.24 1010.05C1065.36 1000.1 1109.75 987.92 1148.96 972.81C1196.43 954.52 1243.94 927.04 1294.21 888.8C1340.56 853.53 1385.12 812.27 1426.78 773.04C1434.23 766.03 1441.83 758.83 1449.18 751.86C1532.69 672.78 1619.05 591.01 1727.72 540.26C1789.6 511.36 1854.52 494.11 1920.01 481.87V401.6C1842.64 414.17 1765.41 432.06 1692.43 466.14L1692.42 466.15Z" fill="url(#paint9_linear_2002_56)" style="mix-blend-mode:overlay"/>
<path d="M1484.48 825.98C1477.13 832.94 1469.52 840.14 1462.08 847.16C1420.42 886.39 1375.87 927.65 1329.51 962.92C1279.25 1001.16 1231.74 1028.65 1184.26 1046.93C1150.36 1059.99 1112.58 1070.86 1069.29 1079.99H1302.14C1322.67 1067.52 1343.49 1053.25 1364.8 1037.03C1411.15 1001.76 1455.71 960.5 1497.37 921.27C1504.82 914.26 1512.42 907.06 1519.77 900.1C1603.28 821.02 1689.64 739.25 1798.31 688.5C1837.84 670.04 1878.62 656.34 1919.99 645.65V563.13C1866.53 574.83 1813.74 590.69 1763.01 614.38C1654.34 665.13 1567.99 746.9 1484.47 825.98H1484.48Z" fill="url(#paint10_linear_2002_56)" style="mix-blend-mode:overlay"/>
<path d="M1555.08 974.21C1547.73 981.17 1540.12 988.37 1532.68 995.39C1502.79 1023.54 1471.4 1052.72 1438.93 1080H1556.74C1560.5 1076.48 1564.24 1072.96 1567.95 1069.47C1575.4 1062.46 1583 1055.26 1590.35 1048.29C1673.86 969.21 1760.22 887.44 1868.89 836.69C1885.72 828.83 1902.77 821.84 1920 815.57V729.72C1890.73 738.69 1861.85 749.43 1833.61 762.62C1724.94 813.37 1638.59 895.14 1555.08 974.22V974.21Z" fill="url(#paint11_linear_2002_56)" style="mix-blend-mode:overlay"/>
<path d="M1670.7 1080H1790.78C1830.87 1047.77 1873.4 1018.27 1920.01 994.38V903.68C1914.72 905.97 1909.44 908.31 1904.18 910.77C1814.89 952.47 1740.66 1015.12 1670.7 1080.01V1080Z" fill="url(#paint12_linear_2002_56)" style="mix-blend-mode:overlay"/>
<path d="M341.01 77.85C363.94 74.56 387.27 71.53 409.83 68.59C457.64 62.36 507.08 55.93 554.51 46.87C606.63 36.92 651.02 24.74 690.23 9.63C697.93 6.66 705.63 3.45 713.34 0H332.95C323.86 1.23 314.77 2.48 305.73 3.78C249.96 11.77 184.4 22.5 120.98 41.45C78.94 54.02 38.46 70.77 0 91.43V185.9C48.7 155.64 101.14 132 156.26 115.52C219.67 96.56 285.24 85.84 341.01 77.85Z" fill="url(#paint13_linear_2002_56)" style="mix-blend-mode:overlay"/>
<path d="M226.84 263.71C290.25 244.75 355.82 234.03 411.59 226.04C434.52 222.75 457.85 219.72 480.41 216.78C528.22 210.55 577.66 204.12 625.09 195.06C677.21 185.11 721.6 172.93 760.81 157.82C808.28 139.53 855.79 112.05 906.06 73.81C936.05 50.99 965.28 25.66 993.47 0H870.36C820.25 38.08 772.86 65.47 725.52 83.71C686.31 98.81 641.92 111 589.8 120.95C542.38 130.01 492.93 136.44 445.12 142.67C422.56 145.61 399.23 148.65 376.31 151.93C320.54 159.92 254.97 170.65 191.56 189.6C127.89 208.63 67.79 237.2 12.92 274.51C8.59002 277.46 4.29002 280.44 0.0200195 283.47V383.85C15.67 371.65 31.7 359.86 48.22 348.62C103.09 311.31 163.19 282.74 226.86 263.71H226.84Z" fill="url(#paint14_linear_2002_56)" style="mix-blend-mode:overlay"/>
<path d="M297.44 411.95C360.85 392.99 426.42 382.27 482.19 374.28C505.11 371 528.44 367.96 551.01 365.02C598.82 358.79 648.26 352.36 695.69 343.3C747.81 333.35 792.2 321.17 831.41 306.06C878.88 287.77 926.39 260.29 976.66 222.05C1023.01 186.78 1067.57 145.52 1109.23 106.29C1116.68 99.28 1124.28 92.08 1131.63 85.11C1161.78 56.56 1192.31 27.67 1224.11 0H1107.94C1104.06 3.67 1100.19 7.33 1096.33 10.99C1088.98 17.95 1081.37 25.15 1073.93 32.17C1032.27 71.41 987.72 112.66 941.36 147.93C891.1 186.17 843.59 213.66 796.11 231.94C756.9 247.04 712.51 259.23 660.39 269.18C612.97 278.24 563.53 284.67 515.71 290.9C493.15 293.84 469.82 296.88 446.89 300.16C391.12 308.15 325.56 318.88 262.14 337.83C198.47 356.86 138.37 385.43 83.5 422.74C54.33 442.57 26.65 464.15 0 486.64V591.5C37.42 557.99 76.54 525.59 118.8 496.85C173.67 459.54 233.77 430.97 297.44 411.94V411.95Z" fill="url(#paint15_linear_2002_56)" style="mix-blend-mode:overlay"/>
<path d="M189.38 645.06C244.25 607.75 304.35 579.18 368.02 560.15C431.43 541.19 497 530.47 552.77 522.48C575.7 519.19 599.03 516.16 621.59 513.22C669.4 506.99 718.84 500.56 766.27 491.5C818.39 481.55 862.78 469.37 901.99 454.26C949.46 435.97 996.97 408.49 1047.24 370.25C1093.59 334.98 1138.15 293.72 1179.81 254.49C1187.26 247.48 1194.86 240.28 1202.21 233.31C1285.72 154.23 1372.08 72.46 1480.75 21.71C1498.1 13.61 1515.69 6.43002 1533.46 0.0200195H1354.31C1285.92 46.59 1225.71 103.58 1166.93 159.24C1159.58 166.2 1151.97 173.4 1144.53 180.42C1102.87 219.65 1058.32 260.91 1011.96 296.18C961.7 334.42 914.19 361.91 866.71 380.19C827.5 395.29 783.11 407.48 730.99 417.43C683.57 426.49 634.13 432.92 586.31 439.15C563.75 442.09 540.42 445.12 517.49 448.41C461.72 456.4 396.16 467.13 332.74 486.08C269.07 505.11 208.97 533.68 154.1 570.99C98.38 608.88 48.09 653.14 0 697.93V805.2C58.87 749.46 119.89 692.31 189.38 645.06Z" fill="url(#paint16_linear_2002_56)" style="mix-blend-mode:overlay"/>
<path d="M1904.31 8.99004C1887.01 11.38 1869.22 13.7 1852 15.94C1739.51 30.58 1623.18 45.72 1516.01 95.77C1407.34 146.52 1320.98 228.29 1237.47 307.37C1230.12 314.33 1222.51 321.53 1215.07 328.54C1173.41 367.78 1128.86 409.03 1082.5 444.3C1032.24 482.54 984.73 510.03 937.25 528.31C898.04 543.41 853.65 555.6 801.53 565.55C754.11 574.61 704.67 581.04 656.85 587.27C634.29 590.21 610.96 593.24 588.03 596.53C532.26 604.52 466.7 615.25 403.28 634.2C339.61 653.23 279.51 681.8 224.64 719.11C152.58 768.11 89.61 827.76 28.72 885.45C19.23 894.44 9.63998 903.52 -0.0200195 912.59V1019.35C21.67 999.61 43.05 979.36 64 959.52C124.89 901.83 187.86 842.18 259.92 793.18C314.79 755.87 374.89 727.3 438.56 708.27C501.97 689.31 567.54 678.59 623.31 670.6C646.23 667.32 669.56 664.28 692.12 661.34C739.93 655.11 789.38 648.68 836.8 639.62C888.92 629.67 933.31 617.49 972.52 602.38C1019.99 584.09 1067.5 556.61 1117.77 518.37C1164.12 483.1 1208.68 441.84 1250.34 402.61C1257.79 395.6 1265.39 388.4 1272.74 381.43C1356.25 302.35 1442.61 220.58 1551.27 169.83C1658.44 119.78 1774.76 104.64 1887.26 90C1898.03 88.6 1909.02 87.16 1919.98 85.7V6.79004C1914.69 7.54004 1909.45 8.28004 1904.29 8.99004H1904.31Z" fill="url(#paint17_linear_2002_56)" style="mix-blend-mode:overlay"/>
<path d="M509.14 856.44C572.56 837.48 638.12 826.76 693.89 818.77C716.82 815.48 740.14 812.45 762.71 809.51C810.52 803.28 859.96 796.85 907.39 787.79C959.51 777.84 1003.9 765.66 1043.11 750.55C1090.58 732.26 1138.09 704.78 1188.36 666.54C1234.71 631.27 1279.27 590.01 1320.93 550.78C1328.38 543.77 1335.98 536.57 1343.33 529.61C1426.84 450.53 1513.2 368.76 1621.87 318.01C1717.06 273.55 1819.47 256.64 1920.01 243.16V164.44C1808.31 178.98 1692.94 194.27 1586.59 243.94C1477.92 294.69 1391.57 376.46 1308.05 455.54C1300.7 462.5 1293.09 469.7 1285.65 476.72C1243.99 515.96 1199.44 557.21 1153.08 592.48C1102.82 630.72 1055.31 658.21 1007.83 676.49C968.62 691.59 924.23 703.78 872.11 713.73C824.69 722.79 775.24 729.22 727.43 735.45C704.87 738.39 681.54 741.42 658.61 744.71C602.84 752.7 537.28 763.43 473.86 782.38C410.19 801.41 350.09 829.98 295.22 867.29C223.16 916.29 160.19 975.94 99.2999 1033.63C83.0899 1048.99 66.6099 1064.59 49.9399 1080.01H163.9C215.79 1031.27 269.93 982.55 330.5 941.37C385.37 904.06 445.47 875.49 509.14 856.46V856.44Z" fill="url(#paint18_linear_2002_56)" style="mix-blend-mode:overlay"/>
<path d="M1657.14 392.07C1548.47 442.82 1462.12 524.59 1378.6 603.67C1371.25 610.63 1363.64 617.83 1356.2 624.85C1314.54 664.09 1269.99 705.34 1223.63 740.61C1173.37 778.85 1125.86 806.34 1078.38 824.62C1039.17 839.72 994.78 851.91 942.66 861.86C895.24 870.92 845.8 877.35 797.98 883.58C775.42 886.52 752.09 889.55 729.16 892.84C673.39 900.83 607.83 911.56 544.41 930.51C480.74 949.54 420.64 978.11 365.77 1015.42C336.31 1035.45 308.38 1057.26 281.48 1079.99H415.49C466.41 1047.32 521.56 1021.96 579.69 1004.59C643.1 985.63 708.67 974.91 764.44 966.92C787.37 963.63 810.7 960.6 833.26 957.66C881.07 951.43 930.51 945 977.94 935.94C1030.06 925.99 1074.45 913.81 1113.66 898.7C1161.13 880.41 1208.64 852.93 1258.91 814.69C1305.26 779.42 1349.82 738.16 1391.48 698.93C1398.93 691.92 1406.53 684.72 1413.88 677.75C1497.39 598.67 1583.75 516.9 1692.42 466.15C1765.4 432.07 1842.63 414.18 1920 401.61V322.13C1830.92 335.04 1741.21 352.82 1657.14 392.08V392.07Z" fill="url(#paint19_linear_2002_56)" style="mix-blend-mode:overlay"/>
<path d="M1449.18 751.86C1441.83 758.82 1434.22 766.02 1426.78 773.04C1385.12 812.27 1340.57 853.53 1294.21 888.8C1243.95 927.04 1196.44 954.53 1148.96 972.81C1109.75 987.92 1065.36 1000.1 1013.24 1010.05C965.82 1019.11 916.38 1025.54 868.56 1031.77C846 1034.71 822.67 1037.75 799.74 1041.03C743.97 1049.02 678.41 1059.75 614.99 1078.7C613.59 1079.12 612.21 1079.56 610.81 1079.99H1069.28C1112.57 1070.85 1150.35 1059.98 1184.25 1046.93C1231.72 1028.64 1279.23 1001.16 1329.5 962.92C1375.85 927.65 1420.41 886.39 1462.07 847.16C1469.52 840.15 1477.12 832.95 1484.47 825.98C1567.98 746.9 1654.34 665.13 1763.01 614.38C1813.75 590.69 1866.53 574.82 1919.99 563.13V481.87C1854.51 494.12 1789.58 511.36 1727.7 540.26C1619.03 591.01 1532.68 672.78 1449.16 751.86H1449.18Z" fill="url(#paint20_linear_2002_56)" style="mix-blend-mode:overlay"/>
<path d="M1519.78 900.1C1512.43 907.06 1504.82 914.26 1497.38 921.27C1455.72 960.51 1411.17 1001.76 1364.81 1037.03C1343.5 1053.25 1322.68 1067.52 1302.15 1079.99H1438.93C1471.4 1052.71 1502.78 1023.53 1532.68 995.38C1540.13 988.37 1547.73 981.17 1555.08 974.2C1638.59 895.12 1724.95 813.35 1833.61 762.6C1861.85 749.41 1890.72 738.67 1920 729.7V645.64C1878.63 656.33 1837.85 670.03 1798.32 688.49C1689.65 739.24 1603.29 821.01 1519.78 900.09V900.1Z" fill="url(#paint21_linear_2002_56)" style="mix-blend-mode:overlay"/>
<path d="M1590.36 1048.29C1583.01 1055.25 1575.4 1062.45 1567.96 1069.47C1564.25 1072.97 1560.51 1076.48 1556.75 1080H1670.7C1740.66 1015.11 1814.89 952.46 1904.18 910.76C1909.43 908.31 1914.71 905.96 1920.01 903.67V815.56C1902.78 821.83 1885.73 828.83 1868.9 836.68C1760.23 887.43 1673.88 969.2 1590.36 1048.28V1048.29Z" fill="url(#paint22_linear_2002_56)" style="mix-blend-mode:overlay"/>
<path d="M1920 1080V994.38C1873.39 1018.28 1830.87 1047.77 1790.77 1080H1920Z" fill="url(#paint23_linear_2002_56)" style="mix-blend-mode:overlay"/>
</g>
<defs>
<clipPath id="paint0_diamond_2002_56_clip_path"><rect width="1920" height="1080"/></clipPath><clipPath id="paint1_diamond_2002_56_clip_path"><rect width="1920" height="1080"/></clipPath><linearGradient id="paint0_diamond_2002_56" x1="0" y1="0" x2="500" y2="500" gradientUnits="userSpaceOnUse">
<stop offset="0.335" stop-color="#E6EAF3"/>
<stop offset="1" stop-color="#D2DAEB"/>
</linearGradient>
<linearGradient id="paint1_diamond_2002_56" x1="0" y1="0" x2="500" y2="500" gradientUnits="userSpaceOnUse">
<stop offset="0.16192" stop-color="#E6EAF3"/>
<stop offset="1" stop-color="#D2DAEB" stop-opacity="0"/>
</linearGradient>
<linearGradient id="paint2_linear_2002_56" x1="159.913" y1="7.08948" x2="175.529" y2="75.1155" gradientUnits="userSpaceOnUse">
<stop/>
<stop offset="1" stop-opacity="0"/>
</linearGradient>
<linearGradient id="paint3_linear_2002_56" x1="418.017" y1="21.9802" x2="474.294" y2="228.68" gradientUnits="userSpaceOnUse">
<stop/>
<stop offset="1" stop-opacity="0"/>
</linearGradient>
<linearGradient id="paint4_linear_2002_56" x1="532.129" y1="37.734" x2="655.449" y2="373.606" gradientUnits="userSpaceOnUse">
<stop/>
<stop offset="1" stop-opacity="0"/>
</linearGradient>
<linearGradient id="paint5_linear_2002_56" x1="650.47" y1="54.1264" x2="849.091" y2="515.194" gradientUnits="userSpaceOnUse">
<stop/>
<stop offset="1" stop-opacity="0"/>
</linearGradient>
<linearGradient id="paint6_linear_2002_56" x1="922.17" y1="70.7637" x2="1167.45" y2="688.089" gradientUnits="userSpaceOnUse">
<stop/>
<stop offset="1" stop-opacity="0"/>
</linearGradient>
<linearGradient id="paint7_linear_2002_56" x1="922.171" y1="162.816" x2="1206.08" y2="818.663" gradientUnits="userSpaceOnUse">
<stop/>
<stop offset="1" stop-opacity="0"/>
</linearGradient>
<linearGradient id="paint8_linear_2002_56" x1="1007.35" y1="308.038" x2="1232.68" y2="873.708" gradientUnits="userSpaceOnUse">
<stop/>
<stop offset="1" stop-opacity="0"/>
</linearGradient>
<linearGradient id="paint9_linear_2002_56" x1="1138.1" y1="454.202" x2="1313.46" y2="919.44" gradientUnits="userSpaceOnUse">
<stop/>
<stop offset="1" stop-opacity="0"/>
</linearGradient>
<linearGradient id="paint10_linear_2002_56" x1="1477.87" y1="603.207" x2="1641.32" y2="925.016" gradientUnits="userSpaceOnUse">
<stop/>
<stop offset="1" stop-opacity="0"/>
</linearGradient>
<linearGradient id="paint11_linear_2002_56" x1="1669.98" y1="756.88" x2="1791.83" y2="957.066" gradientUnits="userSpaceOnUse">
<stop/>
<stop offset="1" stop-opacity="0"/>
</linearGradient>
<linearGradient id="paint12_linear_2002_56" x1="1790.44" y1="917.352" x2="1850.95" y2="1019.69" gradientUnits="userSpaceOnUse">
<stop/>
<stop offset="1" stop-opacity="0"/>
</linearGradient>
<linearGradient id="paint13_linear_2002_56" x1="342.612" y1="14.4147" x2="372.894" y2="153.42" gradientUnits="userSpaceOnUse">
<stop/>
<stop offset="1" stop-opacity="0"/>
</linearGradient>
<linearGradient id="paint14_linear_2002_56" x1="477.166" y1="29.7637" x2="565.097" y2="302.006" gradientUnits="userSpaceOnUse">
<stop/>
<stop offset="1" stop-opacity="0"/>
</linearGradient>
<linearGradient id="paint15_linear_2002_56" x1="587.93" y1="45.8649" x2="748.813" y2="444.16" gradientUnits="userSpaceOnUse">
<stop/>
<stop offset="1" stop-opacity="0"/>
</linearGradient>
<linearGradient id="paint16_linear_2002_56" x1="736.509" y1="62.4536" x2="968.6" y2="591.223" gradientUnits="userSpaceOnUse">
<stop/>
<stop offset="1" stop-opacity="0"/>
</linearGradient>
<linearGradient id="paint17_linear_2002_56" x1="922.141" y1="85.3039" x2="1214.87" y2="749.32" gradientUnits="userSpaceOnUse">
<stop/>
<stop offset="1" stop-opacity="0"/>
</linearGradient>
<linearGradient id="paint18_linear_2002_56" x1="948.12" y1="235.433" x2="1199.5" y2="849.654" gradientUnits="userSpaceOnUse">
<stop/>
<stop offset="1" stop-opacity="0"/>
</linearGradient>
<linearGradient id="paint19_linear_2002_56" x1="1068.45" y1="380.894" x2="1268.1" y2="897.277" gradientUnits="userSpaceOnUse">
<stop/>
<stop offset="1" stop-opacity="0"/>
</linearGradient>
<linearGradient id="paint20_linear_2002_56" x1="1239.6" y1="528.248" x2="1395.74" y2="937.083" gradientUnits="userSpaceOnUse">
<stop/>
<stop offset="1" stop-opacity="0"/>
</linearGradient>
<linearGradient id="paint21_linear_2002_56" x1="1598.9" y1="679.32" x2="1747.5" y2="932.188" gradientUnits="userSpaceOnUse">
<stop/>
<stop offset="1" stop-opacity="0"/>
</linearGradient>
<linearGradient id="paint22_linear_2002_56" x1="1731.22" y1="836.065" x2="1823.2" y2="987.211" gradientUnits="userSpaceOnUse">
<stop/>
<stop offset="1" stop-opacity="0"/>
</linearGradient>
<linearGradient id="paint23_linear_2002_56" x1="1852.84" y1="1001.02" x2="1881.26" y2="1052.34" gradientUnits="userSpaceOnUse">
<stop/>
<stop offset="1" stop-opacity="0"/>
</linearGradient>
<clipPath id="clip0_2002_56">
<rect width="1920" height="1080" fill="white"/>
</clipPath>
</defs>
</svg>
